<svg width="414" height="203" viewBox="0 0 414 203" fill="none" xmlns="http://www.w3.org/2000/svg">
<rect width="414" height="203" rx="30" fill="#323653"/>
<path d="M68.0488 101H47.4922V65.3066H68.0488V71.5078H55.0605V79.3447H67.1455V85.5459H55.0605V94.75H68.0488V101ZM80.5244 87.0596L71.7354 73.7051H80.1826L85.4805 82.3965L90.8271 73.7051H99.2744L90.3877 87.0596L99.6895 101H91.2178L85.4805 91.6494L79.7188 101H71.2715L80.5244 87.0596ZM118.83 101.488C115.624 101.488 113.109 100.325 111.286 97.9971H110.896C111.156 100.276 111.286 101.594 111.286 101.952V113.012H103.84V73.7051H109.895L110.944 77.2451H111.286C113.028 74.5433 115.607 73.1924 119.025 73.1924C122.248 73.1924 124.771 74.4375 126.594 76.9277C128.417 79.418 129.328 82.8766 129.328 87.3037C129.328 90.2171 128.897 92.748 128.034 94.8965C127.188 97.0449 125.975 98.6807 124.396 99.8037C122.818 100.927 120.962 101.488 118.83 101.488ZM116.633 79.1494C114.794 79.1494 113.451 79.7191 112.604 80.8584C111.758 81.9814 111.319 83.8451 111.286 86.4492V87.2549C111.286 90.1846 111.717 92.2842 112.58 93.5537C113.459 94.8232 114.842 95.458 116.73 95.458C120.067 95.458 121.735 92.7074 121.735 87.2061C121.735 84.5205 121.32 82.5104 120.49 81.1758C119.676 79.8249 118.391 79.1494 116.633 79.1494ZM142.927 101H135.48V63.0117H142.927V101ZM156.696 87.3037C156.696 90.0055 157.136 92.0482 158.015 93.4316C158.91 94.8151 160.358 95.5068 162.36 95.5068C164.346 95.5068 165.77 94.8232 166.633 93.4561C167.512 92.0726 167.951 90.0218 167.951 87.3037C167.951 84.6019 167.512 82.5755 166.633 81.2246C165.754 79.8737 164.313 79.1982 162.312 79.1982C160.326 79.1982 158.894 79.8737 158.015 81.2246C157.136 82.5592 156.696 84.5856 156.696 87.3037ZM175.568 87.3037C175.568 91.7471 174.396 95.222 172.053 97.7285C169.709 100.235 166.446 101.488 162.263 101.488C159.642 101.488 157.331 100.919 155.329 99.7793C153.327 98.6237 151.789 96.9717 150.715 94.8232C149.641 92.6748 149.104 90.1683 149.104 87.3037C149.104 82.8441 150.267 79.3773 152.595 76.9033C154.922 74.4294 158.194 73.1924 162.409 73.1924C165.03 73.1924 167.341 73.762 169.343 74.9014C171.345 76.0407 172.883 77.6764 173.957 79.8086C175.031 81.9408 175.568 84.4391 175.568 87.3037ZM196.955 73.1924C197.964 73.1924 198.802 73.2656 199.47 73.4121L198.908 80.3945C198.306 80.2318 197.574 80.1504 196.711 80.1504C194.335 80.1504 192.479 80.7607 191.145 81.9814C189.826 83.2021 189.167 84.9111 189.167 87.1084V101H181.721V73.7051H187.36L188.459 78.2949H188.825C189.672 76.765 190.811 75.5361 192.243 74.6084C193.692 73.6644 195.262 73.1924 196.955 73.1924ZM215.729 78.4902C214.151 78.4902 212.914 78.9948 212.019 80.0039C211.123 80.9967 210.611 82.4128 210.48 84.252H220.93C220.897 82.4128 220.417 80.9967 219.489 80.0039C218.562 78.9948 217.308 78.4902 215.729 78.4902ZM216.779 101.488C212.385 101.488 208.951 100.276 206.477 97.8506C204.003 95.4255 202.766 91.9912 202.766 87.5479C202.766 82.9743 203.905 79.4424 206.184 76.9521C208.479 74.4456 211.644 73.1924 215.681 73.1924C219.538 73.1924 222.541 74.291 224.689 76.4883C226.838 78.6855 227.912 81.721 227.912 85.5947V89.208H210.31C210.391 91.3239 211.018 92.9759 212.189 94.1641C213.361 95.3522 215.005 95.9463 217.121 95.9463C218.765 95.9463 220.319 95.7754 221.784 95.4336C223.249 95.0918 224.779 94.5465 226.374 93.7979V99.5596C225.072 100.211 223.68 100.691 222.199 101C220.718 101.326 218.911 101.488 216.779 101.488ZM261.311 101H253.742V71.6055H244.05V65.3066H271.003V71.6055H261.311V101ZM301.105 101H293.659V85.0576C293.659 81.1188 292.194 79.1494 289.265 79.1494C287.181 79.1494 285.676 79.8574 284.748 81.2734C283.82 82.6895 283.356 84.9844 283.356 88.1582V101H275.91V63.0117H283.356V70.751C283.356 71.3532 283.299 72.7692 283.186 74.999L283.015 77.1963H283.405C285.065 74.527 287.702 73.1924 291.315 73.1924C294.522 73.1924 296.955 74.055 298.615 75.7803C300.275 77.5055 301.105 79.9795 301.105 83.2021V101ZM320.075 78.4902C318.496 78.4902 317.259 78.9948 316.364 80.0039C315.469 80.9967 314.956 82.4128 314.826 84.252H325.275C325.243 82.4128 324.763 80.9967 323.835 80.0039C322.907 78.9948 321.654 78.4902 320.075 78.4902ZM321.125 101.488C316.73 101.488 313.296 100.276 310.822 97.8506C308.348 95.4255 307.111 91.9912 307.111 87.5479C307.111 82.9743 308.251 79.4424 310.529 76.9521C312.824 74.4456 315.99 73.1924 320.026 73.1924C323.884 73.1924 326.887 74.291 329.035 76.4883C331.184 78.6855 332.258 81.721 332.258 85.5947V89.208H314.655C314.737 91.3239 315.363 92.9759 316.535 94.1641C317.707 95.3522 319.351 95.9463 321.467 95.9463C323.111 95.9463 324.665 95.7754 326.13 95.4336C327.595 95.0918 329.125 94.5465 330.72 93.7979V99.5596C329.418 100.211 328.026 100.691 326.545 101C325.064 101.326 323.257 101.488 321.125 101.488ZM208.259 159.088C208.259 162.311 207.095 164.85 204.768 166.705C202.456 168.561 199.234 169.488 195.1 169.488C191.291 169.488 187.922 168.772 184.992 167.34V160.309C187.401 161.383 189.436 162.14 191.096 162.579C192.772 163.019 194.302 163.238 195.686 163.238C197.346 163.238 198.615 162.921 199.494 162.286C200.389 161.651 200.837 160.707 200.837 159.454C200.837 158.754 200.642 158.136 200.251 157.599C199.86 157.045 199.283 156.516 198.518 156.012C197.769 155.507 196.231 154.701 193.903 153.595C191.722 152.569 190.087 151.585 188.996 150.641C187.906 149.697 187.035 148.598 186.384 147.345C185.733 146.091 185.407 144.627 185.407 142.95C185.407 139.793 186.473 137.311 188.605 135.504C190.754 133.697 193.716 132.794 197.492 132.794C199.348 132.794 201.114 133.014 202.79 133.453C204.483 133.893 206.249 134.511 208.088 135.309L205.646 141.192C203.742 140.411 202.163 139.866 200.91 139.557C199.673 139.247 198.452 139.093 197.248 139.093C195.816 139.093 194.717 139.426 193.952 140.094C193.187 140.761 192.805 141.632 192.805 142.706C192.805 143.373 192.959 143.959 193.269 144.464C193.578 144.952 194.066 145.432 194.733 145.904C195.417 146.36 197.02 147.19 199.543 148.395C202.88 149.99 205.166 151.593 206.403 153.204C207.64 154.799 208.259 156.76 208.259 159.088ZM210.236 141.705H218.391L223.542 157.062C223.981 158.396 224.283 159.975 224.445 161.798H224.592C224.771 160.121 225.121 158.543 225.642 157.062L230.695 141.705H238.679L227.131 172.491C226.073 175.34 224.559 177.472 222.59 178.888C220.637 180.304 218.35 181.012 215.729 181.012C214.444 181.012 213.182 180.873 211.945 180.597V174.688C212.84 174.9 213.817 175.006 214.875 175.006C216.193 175.006 217.341 174.599 218.317 173.785C219.31 172.988 220.083 171.775 220.637 170.147L221.076 168.805L210.236 141.705ZM261.652 160.895C261.652 163.694 260.676 165.826 258.723 167.291C256.786 168.756 253.881 169.488 250.007 169.488C248.021 169.488 246.328 169.35 244.929 169.073C243.529 168.813 242.219 168.422 240.998 167.901V161.749C242.382 162.4 243.936 162.945 245.661 163.385C247.403 163.824 248.933 164.044 250.251 164.044C252.953 164.044 254.304 163.263 254.304 161.7C254.304 161.114 254.125 160.642 253.767 160.284C253.409 159.91 252.79 159.495 251.911 159.039C251.032 158.567 249.86 158.022 248.396 157.403C246.296 156.524 244.75 155.711 243.757 154.962C242.78 154.213 242.064 153.359 241.608 152.398C241.169 151.422 240.949 150.226 240.949 148.81C240.949 146.384 241.885 144.513 243.757 143.194C245.645 141.86 248.314 141.192 251.765 141.192C255.052 141.192 258.251 141.909 261.359 143.341L259.113 148.712C257.746 148.126 256.468 147.646 255.28 147.271C254.092 146.897 252.88 146.71 251.643 146.71C249.445 146.71 248.347 147.304 248.347 148.492C248.347 149.16 248.697 149.737 249.396 150.226C250.113 150.714 251.667 151.438 254.06 152.398C256.192 153.261 257.754 154.067 258.747 154.815C259.74 155.564 260.472 156.427 260.944 157.403C261.416 158.38 261.652 159.544 261.652 160.895ZM278.962 163.556C280.264 163.556 281.826 163.271 283.649 162.701V168.243C281.794 169.073 279.515 169.488 276.813 169.488C273.835 169.488 271.662 168.74 270.295 167.242C268.944 165.729 268.269 163.466 268.269 160.455V147.296H264.704V144.146L268.806 141.656L270.954 135.895H275.715V141.705H283.356V147.296H275.715V160.455C275.715 161.513 276.008 162.294 276.594 162.799C277.196 163.303 277.985 163.556 278.962 163.556ZM300.495 146.49C298.916 146.49 297.679 146.995 296.784 148.004C295.889 148.997 295.376 150.413 295.246 152.252H305.695C305.663 150.413 305.183 148.997 304.255 148.004C303.327 146.995 302.074 146.49 300.495 146.49ZM301.545 169.488C297.15 169.488 293.716 168.276 291.242 165.851C288.768 163.425 287.531 159.991 287.531 155.548C287.531 150.974 288.671 147.442 290.949 144.952C293.244 142.446 296.41 141.192 300.446 141.192C304.304 141.192 307.307 142.291 309.455 144.488C311.604 146.686 312.678 149.721 312.678 153.595V157.208H295.075C295.157 159.324 295.783 160.976 296.955 162.164C298.127 163.352 299.771 163.946 301.887 163.946C303.531 163.946 305.085 163.775 306.55 163.434C308.015 163.092 309.545 162.547 311.14 161.798V167.56C309.838 168.211 308.446 168.691 306.965 169C305.484 169.326 303.677 169.488 301.545 169.488ZM343.171 169H335.725V153.058C335.725 151.088 335.391 149.615 334.724 148.639C334.073 147.646 333.039 147.149 331.623 147.149C329.719 147.149 328.335 147.849 327.473 149.249C326.61 150.649 326.179 152.952 326.179 156.158V169H318.732V141.705H324.421L325.422 145.196H325.837C326.569 143.943 327.627 142.966 329.011 142.267C330.394 141.55 331.981 141.192 333.771 141.192C337.857 141.192 340.624 142.527 342.072 145.196H342.731C343.464 143.927 344.538 142.942 345.954 142.242C347.386 141.542 348.998 141.192 350.788 141.192C353.881 141.192 356.216 141.99 357.795 143.585C359.39 145.164 360.188 147.703 360.188 151.202V169H352.717V153.058C352.717 151.088 352.383 149.615 351.716 148.639C351.065 147.646 350.031 147.149 348.615 147.149C346.792 147.149 345.425 147.8 344.514 149.103C343.618 150.405 343.171 152.472 343.171 155.304V169ZM366.804 165.509C366.804 164.142 367.17 163.108 367.902 162.408C368.635 161.708 369.701 161.358 371.101 161.358C372.451 161.358 373.493 161.716 374.226 162.433C374.974 163.149 375.349 164.174 375.349 165.509C375.349 166.795 374.974 167.812 374.226 168.561C373.477 169.293 372.435 169.659 371.101 169.659C369.733 169.659 368.675 169.301 367.927 168.585C367.178 167.853 366.804 166.827 366.804 165.509Z" fill="white"/>
<path d="M68.5615 159.088C68.5615 162.311 67.3978 164.85 65.0703 166.705C62.7591 168.561 59.5365 169.488 55.4023 169.488C51.5938 169.488 48.2246 168.772 45.2949 167.34V160.309C47.7038 161.383 49.7383 162.14 51.3984 162.579C53.0749 163.019 54.6048 163.238 55.9883 163.238C57.6484 163.238 58.918 162.921 59.7969 162.286C60.6921 161.651 61.1396 160.707 61.1396 159.454C61.1396 158.754 60.9443 158.136 60.5537 157.599C60.1631 157.045 59.5853 156.516 58.8203 156.012C58.0716 155.507 56.5335 154.701 54.2061 153.595C52.0251 152.569 50.3893 151.585 49.2988 150.641C48.2083 149.697 47.3376 148.598 46.6865 147.345C46.0355 146.091 45.71 144.627 45.71 142.95C45.71 139.793 46.776 137.311 48.9082 135.504C51.0566 133.697 54.0189 132.794 57.7949 132.794C59.6504 132.794 61.4163 133.014 63.0928 133.453C64.7855 133.893 66.5514 134.511 68.3906 135.309L65.9492 141.192C64.0449 140.411 62.4661 139.866 61.2129 139.557C59.9759 139.247 58.7552 139.093 57.5508 139.093C56.1185 139.093 55.0199 139.426 54.2549 140.094C53.4899 140.761 53.1074 141.632 53.1074 142.706C53.1074 143.373 53.262 143.959 53.5713 144.464C53.8805 144.952 54.3688 145.432 55.0361 145.904C55.7197 146.36 57.3229 147.19 59.8457 148.395C63.1823 149.99 65.4691 151.593 66.7061 153.204C67.943 154.799 68.5615 156.76 68.5615 159.088ZM80.3779 155.304C80.3779 158.006 80.8174 160.048 81.6963 161.432C82.5915 162.815 84.04 163.507 86.042 163.507C88.0277 163.507 89.4518 162.823 90.3145 161.456C91.1934 160.073 91.6328 158.022 91.6328 155.304C91.6328 152.602 91.1934 150.576 90.3145 149.225C89.4355 147.874 87.9951 147.198 85.9932 147.198C84.0075 147.198 82.5752 147.874 81.6963 149.225C80.8174 150.559 80.3779 152.586 80.3779 155.304ZM99.25 155.304C99.25 159.747 98.0781 163.222 95.7344 165.729C93.3906 168.235 90.1273 169.488 85.9443 169.488C83.3239 169.488 81.0127 168.919 79.0107 167.779C77.0088 166.624 75.4707 164.972 74.3965 162.823C73.3223 160.675 72.7852 158.168 72.7852 155.304C72.7852 150.844 73.9489 147.377 76.2764 144.903C78.6038 142.429 81.8753 141.192 86.0908 141.192C88.7113 141.192 91.0225 141.762 93.0244 142.901C95.0264 144.041 96.5645 145.676 97.6387 147.809C98.7129 149.941 99.25 152.439 99.25 155.304ZM112.849 169H105.402V131.012H112.849V169ZM138.02 169L136.579 165.289H136.384C135.131 166.868 133.837 167.966 132.502 168.585C131.184 169.187 129.458 169.488 127.326 169.488C124.706 169.488 122.639 168.74 121.125 167.242C119.628 165.745 118.879 163.613 118.879 160.846C118.879 157.949 119.888 155.816 121.906 154.449C123.941 153.066 127.001 152.301 131.086 152.154L135.822 152.008V150.812C135.822 148.045 134.406 146.661 131.574 146.661C129.393 146.661 126.83 147.32 123.884 148.639L121.418 143.609C124.559 141.965 128.042 141.144 131.867 141.144C135.529 141.144 138.337 141.941 140.29 143.536C142.243 145.131 143.22 147.556 143.22 150.812V169H138.02ZM135.822 156.354L132.941 156.451C130.777 156.516 129.165 156.907 128.107 157.623C127.049 158.339 126.521 159.43 126.521 160.895C126.521 162.994 127.725 164.044 130.134 164.044C131.859 164.044 133.234 163.548 134.26 162.555C135.301 161.562 135.822 160.243 135.822 158.6V156.354ZM166.145 141.192C167.154 141.192 167.992 141.266 168.659 141.412L168.098 148.395C167.495 148.232 166.763 148.15 165.9 148.15C163.524 148.15 161.669 148.761 160.334 149.981C159.016 151.202 158.356 152.911 158.356 155.108V169H150.91V141.705H156.55L157.648 146.295H158.015C158.861 144.765 160 143.536 161.433 142.608C162.881 141.664 164.452 141.192 166.145 141.192Z" fill="#FFD55F"/>
</svg>
